HIERARCHY
ROOT Hips
{
  OFFSET -1.18442 96.2759 68.9828
  CHANNELS 6 Xposition Yposition Zposition Zrotation Xrotation Yrotation
  JOINT Chest
  {
    OFFSET 0 10.5691 -1.07959
    CHANNELS 6 Xposition Yposition Zposition Zrotation Xrotation Yrotation
    JOINT Chest2
    {
      OFFSET 0 11.6675 1.08235
      CHANNELS 6 Xposition Yposition Zposition Zrotation Xrotation Yrotation
      JOINT Chest3
      {
        OFFSET 0 10.5876 0
        CHANNELS 6 Xposition Yposition Zposition Zrotation Xrotation Yrotation
        JOINT Chest4
        {
          OFFSET 0 10.5876 0
          CHANNELS 6 Xposition Yposition Zposition Zrotation Xrotation Yrotation
          JOINT Neck
          {
            OFFSET 0 14.88 0
            CHANNELS 6 Xposition Yposition Zposition Zrotation Xrotation Yrotation
            JOINT Head
            {
              OFFSET 0 9.61472 2.16553
              CHANNELS 6 Xposition Yposition Zposition Zrotation Xrotation Yrotation
              End Site
              {
                OFFSET 0 0 0
              }
            }
          }
          JOINT RightCollar
          {
            OFFSET -3.23953 8.30385 0
            CHANNELS 6 Xposition Yposition Zposition Zrotation Xrotation Yrotation
            JOINT RightShoulder
            {
              OFFSET -15.1725 0 0
              CHANNELS 6 Xposition Yposition Zposition Zrotation Xrotation Yrotation
              JOINT RightElbow
              {
                OFFSET -32.4113 0 0
                CHANNELS 6 Xposition Yposition Zposition Zrotation Xrotation Yrotation
                JOINT RightWrist
                {
                  OFFSET -26.4919 0 1.0813
                  CHANNELS 6 Xposition Yposition Zposition Zrotation Xrotation Yrotation
                  End Site
                  {
                    OFFSET 0 0 0
                  }
                }
              }
            }
          }
          JOINT LeftCollar
          {
            OFFSET 3.23953 8.30385 0
            CHANNELS 6 Xposition Yposition Zposition Zrotation Xrotation Yrotation
            JOINT LeftShoulder
            {
              OFFSET 15.1725 0 0
              CHANNELS 6 Xposition Yposition Zposition Zrotation Xrotation Yrotation
              JOINT LeftElbow
              {
                OFFSET 32.4113 0 0
                CHANNELS 6 Xposition Yposition Zposition Zrotation Xrotation Yrotation
                JOINT LeftWrist
                {
                  OFFSET 26.4919 0 1.08131
                  CHANNELS 6 Xposition Yposition Zposition Zrotation Xrotation Yrotation
                  End Site
                  {
                    OFFSET 0 0 0
                  }
                }
              }
            }
          }
        }
      }
    }
  }
  JOINT RightHip
  {
    OFFSET -8.63673 0.00547028 0
    CHANNELS 6 Xposition Yposition Zposition Zrotation Xrotation Yrotation
    JOINT RightKnee
    {
      OFFSET 0 -44.4932 -2.13963
      CHANNELS 6 Xposition Yposition Zposition Zrotation Xrotation Yrotation
      JOINT RightAnkle
      {
        OFFSET 0 -43.4408 -3.54051
        CHANNELS 6 Xposition Yposition Zposition Zrotation Xrotation Yrotation
        JOINT RightToe
        {
          OFFSET 0 -8.39271 19.1252
          CHANNELS 6 Xposition Yposition Zposition Zrotation Xrotation Yrotation
          End Site
          {
            OFFSET 0 0 0
          }
        }
      }
    }
  }
  JOINT LeftHip
  {
    OFFSET 8.63673 0.00547028 0
    CHANNELS 6 Xposition Yposition Zposition Zrotation Xrotation Yrotation
    JOINT LeftKnee
    {
      OFFSET 0 -44.4933 -2.13963
      CHANNELS 6 Xposition Yposition Zposition Zrotation Xrotation Yrotation
      JOINT LeftAnkle
      {
        OFFSET 0 -43.4407 -3.5405
        CHANNELS 6 Xposition Yposition Zposition Zrotation Xrotation Yrotation
        JOINT LeftToe
        {
          OFFSET 0 -8.39273 19.1252
          CHANNELS 6 Xposition Yposition Zposition Zrotation Xrotation Yrotation
          End Site
          {
            OFFSET 0 0 0
          }
        }
      }
    }
  }
}
MOTION
Frames:	7
Frame Time:	0.0333333
42.7227 94.1669 -14.9534 -1.71985 2.73479 -77.1365 -3.55271e-015 10.5691 -1.07959 0.403778 2.05097 0.827953 0 11.6675 1.08235 0.77861 4.10746 1.64281 8.88178e-016 10.5876 0 0.778612 4.10746 1.64278 -3.55271e-015 10.5876 -1.42109e-014 0.778615 4.10747 1.64278 -1.77636e-015 14.8802 1.89295e-005 23.1291 8.4138 21.3209 1.42109e-014 9.60783 2.16553 -45.2438 -4.17251 38.2198 -3.23953 8.30385 0 -3.97569e-016 9.93923e-016 -3.18055e-015 -15.1725 -4.76837e-006 1.42109e-014 54.6456 30.254 20.0799 -32.4113 6.23681e-007 -3.26653e-007 -7.78588 -14.9683 84.6458 -26.4919 -6.78398e-006 1.0813 8.06633 0.0722261 -0.709658 3.23953 8.30385 0 -3.97569e-016 9.93923e-016 -3.18055e-015 15.1725 -4.76837e-006 1.42109e-014 -60.9462 53.6308 -10.5201 32.4113 1.87382e-008 -2.25444e-006 12.2422 -28.5088 -97.2072 26.4919 6.50561e-006 1.08131 -27.4913 -1.96388 9.72103 -8.63673 0.00547028 0 -15.1484 -18.9176 -11.4979 1.18523e-006 -44.4932 -2.13974 9.83356 48.4969 -9.19338 5.05666e-007 -43.4408 -3.54051 1.56891 6.00093 -7.37143 -2.15983e-007 -8.39271 19.1252 0.294696 -4.57578 -12.7276 8.63673 0.00547028 0 -3.74996 -20.4979 4.09594 -4.98304e-007 -44.4932 -2.13963 -8.09569 30.8024 2.63599 7.00199e-009 -43.4407 -3.5405 2.98144 0.0347736 1.99112 -2.54697e-007 -8.39273 19.1252 -0.175055 -3.1835 2.24057 
47.424 95.0511 -12.7675 0.064174 0.450487 -77.1129 -1.77636e-015 10.5691 -1.07959 0.111441 1.74593 1.0059 -3.55271e-015 11.6675 1.08235 0.192346 3.49359 2.00963 0 10.5876 0 0.192345 3.49359 2.00965 0 10.5876 -1.42109e-014 0.192347 3.49359 2.00966 0 14.8802 1.8488e-005 23.4581 7.85098 21.1007 0 9.60782 2.16553 -45.2617 -3.08439 38.3755 -3.23953 8.30385 0 -7.95139e-016 -9.93923e-016 -0 -15.1725 -4.76837e-006 0 54.0071 34.2314 21.5753 -32.4113 6.23681e-007 -3.26653e-007 -10.6359 -17.9657 86.2843 -26.4919 -6.78398e-006 1.0813 10.3193 0.170426 0.0498781 3.23953 8.30385 0 -7.95139e-016 -9.93923e-016 -0 15.1725 -4.76837e-006 1.42109e-014 -66.8198 48.9882 0.908223 32.4113 1.87382e-008 -2.25444e-006 7.73871 -26.8073 -100.76 26.4919 6.50561e-006 1.08131 -25.9154 -2.64787 13.2828 -8.63673 0.00547028 0 -15.9607 -18.1702 -13.161 1.18523e-006 -44.4932 -2.13974 15.9407 53.4703 -16.1064 5.05666e-007 -43.4408 -3.54051 2.6595 5.37936 -7.28027 -2.15983e-007 -8.39271 19.1252 -0.0321842 -3.97773 -9.07354 8.63673 0.00547028 0 -5.28813 -21.614 6.7024 -4.98304e-007 -44.4932 -2.13963 -8.96117 25.3882 5.77657 7.00199e-009 -43.4407 -3.5405 -5.25289 6.21036 -2.6847 -2.54697e-007 -8.39273 19.1252 0.971584 -2.25461 -3.92501 
52.1064 95.3053 -10.6074 1.4237 -1.64791 -76.7298 -1.77636e-015 10.5691 -1.07959 -0.064168 1.55032 1.12083 -3.55271e-015 11.6675 1.08235 -0.158728 3.09909 2.24472 0 10.5876 -1.42109e-014 -0.158726 3.0991 2.24469 -3.55271e-015 10.5876 0 -0.15873 3.09909 2.24473 0 14.8802 1.8048e-005 23.4736 7.57762 20.4469 0 9.60782 2.16553 -45.9654 -3.31312 37.7675 -3.23953 8.30385 1.42109e-014 1.98785e-016 -1.49089e-015 -9.54166e-015 -15.1725 -4.76837e-006 -1.42109e-014 52.5636 36.7777 22.6254 -32.4113 6.23681e-007 -3.26654e-007 -13.9077 -20.6121 87.8215 -26.4919 -6.78398e-006 1.0813 12.5556 0.364019 1.6621 3.23953 8.30385 0 1.98785e-016 -1.49089e-015 -9.54166e-015 15.1725 -4.76837e-006 0 -69.549 42.7846 7.49611 32.4113 1.87382e-008 -2.25444e-006 0.65893 -23.1922 -105.045 26.4919 6.50561e-006 1.08131 -20.8333 -3.14679 18.689 -8.63673 0.00547028 0 -15.9601 -15.753 -15.6208 1.18523e-006 -44.4932 -2.13974 15.9098 52.4947 -16.6007 5.05666e-007 -43.4408 -3.54051 7.53638 5.82614 -6.75347 -2.15983e-007 -8.39271 19.1252 0.0280559 -2.81965 -6.61023 8.63673 0.00547028 0 -6.04961 -23.1513 9.75818 -4.98304e-007 -44.4932 -2.13963 -7.76374 23.5875 7.11288 7.002e-009 -43.4407 -3.5405 -13.8862 11.9952 -9.19033 -2.54697e-007 -8.39273 19.1252 1.55067 -11.578 -5.98156 
56.5981 94.783 -8.32615 1.77973 -3.65664 -77.2229 -3.55271e-015 10.5691 -1.07959 -0.22221 1.55187 1.22169 -3.55271e-015 11.6675 1.08235 -0.477746 3.09865 2.45074 0 10.5876 0 -0.477749 3.09865 2.45075 1.77636e-015 10.5876 0 -0.47775 3.09866 2.45075 0 14.8802 1.76098e-005 25.035 6.87484 19.8966 0 9.60781 2.16553 -47.2585 -3.27814 37.9287 -3.23953 8.30385 -1.42109e-014 -5.96354e-016 -7.45443e-016 3.18055e-015 -15.1725 -4.76837e-006 0 50.9927 37.9558 23.8532 -32.4113 6.23681e-007 -3.26653e-007 -12.8421 -22.7259 91.8871 -26.4919 -6.78398e-006 1.0813 13.7262 0.0188388 -1.59197 3.23953 8.30385 -1.42109e-014 -5.96354e-016 -7.45443e-016 3.18055e-015 15.1725 -4.76837e-006 0 -68.9886 34.9837 10.5864 32.4113 1.87382e-008 -2.25444e-006 -6.74806 -18.1669 -109.476 26.4919 6.50561e-006 1.08131 -15.9286 -3.17373 24.2662 -8.63673 0.00547028 -7.10543e-015 -14.4044 -11.9642 -16.5239 1.18523e-006 -44.4932 -2.13974 10.0608 46.0751 -10.2532 5.05666e-007 -43.4408 -3.54051 11.3596 5.951 -5.71854 -2.15983e-007 -8.39271 19.1252 -1.66561 -8.42865 -11.4285 8.63673 0.00547028 0 -4.67009 -26.051 10.7741 -4.98304e-007 -44.4932 -2.13963 -8.71123 30.2893 5.17675 7.00199e-009 -43.4407 -3.5405 -13.289 10.8576 -9.77435 -2.54697e-007 -8.39273 19.1252 1.52951 -16.4056 -2.83926 
60.906 93.3881 -5.9766 0.992828 -4.98667 -79.2409 -3.55271e-015 10.5691 -1.07959 -0.274183 1.61345 1.37653 -3.55271e-015 11.6675 1.08235 -0.587388 3.21987 2.76244 0 10.5876 1.42109e-014 -0.587388 3.21987 2.76246 0 10.5876 -1.42109e-014 -0.587389 3.21987 2.76244 0 14.8803 1.71732e-005 26.2878 7.37158 19.3091 0 9.6078 2.16553 -47.9658 -4.29923 37.7107 -3.23953 8.30385 -1.42109e-014 1.2424e-015 4.72114e-016 3.18055e-015 -15.1725 -4.76837e-006 0 49.9821 37.6928 24.5242 -32.4113 6.23681e-007 -3.26653e-007 -12.7636 -23.6355 93.8165 -26.4919 -6.78398e-006 1.0813 13.941 -0.0911957 -2.48065 3.23953 8.30385 0 1.2424e-015 4.72114e-016 3.18055e-015 15.1725 -4.76837e-006 0 -67.4188 27.3231 12.6827 32.4113 1.87382e-008 -2.25444e-006 -12.7972 -12.875 -113.181 26.4919 6.50561e-006 1.08131 -9.0992 -2.19372 28.5556 -8.63673 0.00547028 0 -12.2792 -8.29345 -14.483 1.18523e-006 -44.4932 -2.13974 5.36968 37.551 -7.93945 5.05666e-007 -43.4408 -3.54051 2.43426 1.62601 -4.95665 -2.15983e-007 -8.39271 19.1252 -10.2979 -22.9004 -19.9959 8.63673 0.00547028 0 -0.68964 -29.6644 9.18048 -4.98304e-007 -44.4932 -2.13963 -11.6637 43.6328 5.58947 7.00199e-009 -43.4407 -3.5405 -6.7125 5.40375 -6.6955 -2.54697e-007 -8.39273 19.1252 1.38967 -17.773 1.88362 
65.3584 92.0252 -3.20807 -0.571094 -5.38238 -82.1355 -1.77636e-015 10.5691 -1.07959 -0.227706 1.78706 1.40477 1.77636e-015 11.6675 1.08235 -0.499711 3.56786 2.81841 0 10.5876 0 -0.499714 3.56787 2.81845 0 10.5876 -2.84217e-014 -0.499714 3.56786 2.81844 0 14.8803 1.67383e-005 26.3438 8.54424 19.5721 -1.42109e-014 9.6078 2.16553 -48.0205 -6.28256 37.5667 -3.23953 8.30385 1.42109e-014 -5.96354e-016 2.68359e-015 6.36111e-015 -15.1725 -4.76837e-006 0 50.1917 35.5923 25.3516 -32.4113 6.23681e-007 -3.26653e-007 -13.0255 -22.3775 92.4944 -26.4919 -6.78398e-006 1.0813 12.9183 0.09635 -0.850406 3.23953 8.30385 1.42109e-014 -5.96354e-016 2.68359e-015 6.36111e-015 15.1725 -4.76837e-006 1.42109e-014 -65.4642 19.1389 13.3216 32.4113 1.87382e-008 -2.25444e-006 -17.1311 -7.86649 -115.233 26.4919 6.50561e-006 1.08131 -3.5245 -0.887481 30.4114 -8.63673 0.00547028 0 -12.1945 -8.80446 -12.6794 1.18523e-006 -44.4932 -2.13974 1.39582 36.3249 -8.89938 5.05666e-007 -43.4408 -3.54051 -1.70932 -2.00059 -3.87836 -2.15983e-007 -8.39271 19.1252 -11.5241 -25.6147 -13.7639 8.63673 0.00547028 0 4.00224 -31.1931 6.55357 -4.98304e-007 -44.4932 -2.13963 -15.245 55.2268 9.19697 7.00199e-009 -43.4407 -3.5405 -4.94957 1.64031 -8.38075 -2.54697e-007 -8.39273 19.1252 1.47272 -18.3351 1.1006 
69.6443 90.2587 -0.2206 -2.88048 -4.57259 -84.4652 -1.77636e-015 10.5691 -1.07959 0.0890077 2.12067 1.15945 -5.32907e-015 11.6675 1.08235 0.135163 4.24269 2.31801 3.55271e-015 10.5876 0 0.135163 4.24269 2.31801 0 10.5876 -2.84217e-014 0.135164 4.24269 2.31801 0 14.8803 1.63052e-005 24.6115 7.89572 21.1501 0 9.60779 2.16553 -46.5059 -5.72806 38.1891 -3.23953 8.30385 -1.42109e-014 -7.95139e-016 2.98177e-015 -1.59028e-015 -15.1725 -4.76837e-006 0 50.9702 32.5992 25.6595 -32.4113 6.23681e-007 -3.26653e-007 -11.6175 -19.2843 88.7575 -26.4919 -6.78398e-006 1.0813 9.97532 0.164265 0.11925 3.23953 8.30385 -1.42109e-014 -7.95139e-016 2.98177e-015 -1.59028e-015 15.1725 -4.76837e-006 0 -65.214 11.1171 11.5523 32.4113 1.87382e-008 -2.25444e-006 -21.9744 -2.77454 -115.206 26.4919 6.50561e-006 1.08131 3.08744 0.805615 31.6337 -8.63673 0.00547028 -1.42109e-014 -13.8825 -10.3301 -11.9844 1.18523e-006 -44.4932 -2.13974 4.23468 37.9894 -3.62233 5.05666e-007 -43.4408 -3.54051 -10.9721 0.339386 -9.58172 -2.15983e-007 -8.39271 19.1252 -12.4125 -26.189 -19.5745 8.63673 0.00547028 -2.84217e-014 8.55513 -30.1655 2.93396 -4.98304e-007 -44.4932 -2.13963 -18.9942 64.1292 10.8717 7.00199e-009 -43.4407 -3.5405 -0.686975 -2.02708 -6.00085 -2.54697e-007 -8.39273 19.1252 1.42587 -18.5129 2.63277 
